<mxfile modified="2024-02-06T10:48:15.530Z" host="app.diagrams.net" agent="Mozilla/5.0 (Windows NT 10.0; Win64; x64) AppleWebKit/537.36 (KHTML, like Gecko) Chrome/121.0.0.0 Safari/537.36" etag="U3UGIcBlRyYL9IB2DJvI" version="23.0.2" type="device">
  <diagram id="Ht1M8jgEwFfnCIfOTk4-" name="Page-1">
    <mxGraphModel dx="1591" dy="757" grid="1" gridSize="10" guides="1" tooltips="1" connect="1" arrows="1" fold="1" page="1" pageScale="1" pageWidth="1169" pageHeight="827" math="0" shadow="0">
      <root>
        <mxCell id="0" />
        <mxCell id="1" parent="0" />
        <mxCell id="UEzPUAAOIrF-is8g5C7q-74" value="AWS Cloud" style="points=[[0,0],[0.25,0],[0.5,0],[0.75,0],[1,0],[1,0.25],[1,0.5],[1,0.75],[1,1],[0.75,1],[0.5,1],[0.25,1],[0,1],[0,0.75],[0,0.5],[0,0.25]];outlineConnect=0;gradientColor=none;html=1;whiteSpace=wrap;fontSize=12;fontStyle=0;shape=mxgraph.aws4.group;grIcon=mxgraph.aws4.group_aws_cloud_alt;strokeColor=#232F3E;fillColor=none;verticalAlign=top;align=left;spacingLeft=30;fontColor=#232F3E;dashed=0;labelBackgroundColor=#ffffff;container=1;pointerEvents=0;collapsible=0;recursiveResize=0;" parent="1" vertex="1">
          <mxGeometry x="80" y="90" width="840" height="220" as="geometry" />
        </mxCell>
        <mxCell id="YWTlqwsw8NpX150Vbp0f-2" value="" style="sketch=0;points=[[0,0,0],[0.25,0,0],[0.5,0,0],[0.75,0,0],[1,0,0],[0,1,0],[0.25,1,0],[0.5,1,0],[0.75,1,0],[1,1,0],[0,0.25,0],[0,0.5,0],[0,0.75,0],[1,0.25,0],[1,0.5,0],[1,0.75,0]];outlineConnect=0;fontColor=#232F3E;fillColor=#8C4FFF;strokeColor=#ffffff;dashed=0;verticalLabelPosition=bottom;verticalAlign=top;align=center;html=1;fontSize=12;fontStyle=0;aspect=fixed;shape=mxgraph.aws4.resourceIcon;resIcon=mxgraph.aws4.kinesis_data_streams;" vertex="1" parent="UEzPUAAOIrF-is8g5C7q-74">
          <mxGeometry x="498.13" y="67.5" width="78" height="78" as="geometry" />
        </mxCell>
        <mxCell id="YWTlqwsw8NpX150Vbp0f-3" value="" style="outlineConnect=0;dashed=0;verticalLabelPosition=bottom;verticalAlign=top;align=center;html=1;shape=mxgraph.aws3.lambda;fillColor=#F58534;gradientColor=none;" vertex="1" parent="UEzPUAAOIrF-is8g5C7q-74">
          <mxGeometry x="278.13" y="60" width="76.5" height="93" as="geometry" />
        </mxCell>
        <mxCell id="YWTlqwsw8NpX150Vbp0f-1" value="" style="edgeStyle=orthogonalEdgeStyle;html=1;endArrow=block;elbow=vertical;startArrow=none;endFill=1;strokeColor=#545B64;rounded=0;entryX=0;entryY=0.5;entryDx=0;entryDy=0;entryPerimeter=0;" edge="1" parent="UEzPUAAOIrF-is8g5C7q-74" source="YWTlqwsw8NpX150Vbp0f-3" target="YWTlqwsw8NpX150Vbp0f-2">
          <mxGeometry width="100" relative="1" as="geometry">
            <mxPoint x="423.13" y="187.5" as="sourcePoint" />
            <mxPoint x="523.13" y="187.5" as="targetPoint" />
          </mxGeometry>
        </mxCell>
        <mxCell id="YWTlqwsw8NpX150Vbp0f-4" value="" style="sketch=0;points=[[0,0,0],[0.25,0,0],[0.5,0,0],[0.75,0,0],[1,0,0],[0,1,0],[0.25,1,0],[0.5,1,0],[0.75,1,0],[1,1,0],[0,0.25,0],[0,0.5,0],[0,0.75,0],[1,0.25,0],[1,0.5,0],[1,0.75,0]];outlineConnect=0;fontColor=#232F3E;fillColor=#C925D1;strokeColor=#ffffff;dashed=0;verticalLabelPosition=bottom;verticalAlign=top;align=center;html=1;fontSize=12;fontStyle=0;aspect=fixed;shape=mxgraph.aws4.resourceIcon;resIcon=mxgraph.aws4.rds;" vertex="1" parent="UEzPUAAOIrF-is8g5C7q-74">
          <mxGeometry x="48.13" y="67.5" width="78" height="78" as="geometry" />
        </mxCell>
        <mxCell id="YWTlqwsw8NpX150Vbp0f-5" value="" style="outlineConnect=0;dashed=0;verticalLabelPosition=bottom;verticalAlign=top;align=center;html=1;shape=mxgraph.aws3.redshift;fillColor=#2E73B8;gradientColor=none;" vertex="1" parent="UEzPUAAOIrF-is8g5C7q-74">
          <mxGeometry x="708.13" y="69" width="67.5" height="75" as="geometry" />
        </mxCell>
        <mxCell id="YWTlqwsw8NpX150Vbp0f-7" value="" style="endArrow=classic;html=1;rounded=0;exitX=1;exitY=0.5;exitDx=0;exitDy=0;exitPerimeter=0;entryX=0;entryY=0.5;entryDx=0;entryDy=0;entryPerimeter=0;" edge="1" parent="UEzPUAAOIrF-is8g5C7q-74" source="YWTlqwsw8NpX150Vbp0f-4" target="YWTlqwsw8NpX150Vbp0f-3">
          <mxGeometry width="50" height="50" relative="1" as="geometry">
            <mxPoint x="438.13" y="167.5" as="sourcePoint" />
            <mxPoint x="488.13" y="117.5" as="targetPoint" />
          </mxGeometry>
        </mxCell>
        <mxCell id="YWTlqwsw8NpX150Vbp0f-9" value="" style="edgeStyle=orthogonalEdgeStyle;html=1;endArrow=block;elbow=vertical;startArrow=none;endFill=1;strokeColor=#545B64;rounded=0;entryX=0;entryY=0.5;entryDx=0;entryDy=0;entryPerimeter=0;exitX=1;exitY=0.5;exitDx=0;exitDy=0;exitPerimeter=0;" edge="1" parent="UEzPUAAOIrF-is8g5C7q-74" source="YWTlqwsw8NpX150Vbp0f-2" target="YWTlqwsw8NpX150Vbp0f-5">
          <mxGeometry width="100" relative="1" as="geometry">
            <mxPoint x="608.13" y="167.5" as="sourcePoint" />
            <mxPoint x="751.13" y="167.5" as="targetPoint" />
          </mxGeometry>
        </mxCell>
        <mxCell id="YWTlqwsw8NpX150Vbp0f-11" value="&lt;font style=&quot;font-size: 18px;&quot;&gt;&lt;b&gt;Redshift&lt;/b&gt;&lt;/font&gt;" style="text;html=1;align=center;verticalAlign=middle;resizable=0;points=[];autosize=1;strokeColor=none;fillColor=none;" vertex="1" parent="UEzPUAAOIrF-is8g5C7q-74">
          <mxGeometry x="691.88" y="145.5" width="100" height="40" as="geometry" />
        </mxCell>
        <mxCell id="YWTlqwsw8NpX150Vbp0f-12" value="&lt;b&gt;&lt;font style=&quot;font-size: 18px;&quot;&gt;Lambda&lt;/font&gt;&lt;/b&gt;" style="text;html=1;align=center;verticalAlign=middle;resizable=0;points=[];autosize=1;strokeColor=none;fillColor=none;" vertex="1" parent="UEzPUAAOIrF-is8g5C7q-74">
          <mxGeometry x="271.38" y="153" width="90" height="40" as="geometry" />
        </mxCell>
        <mxCell id="YWTlqwsw8NpX150Vbp0f-13" value="&lt;b&gt;&lt;font style=&quot;font-size: 18px;&quot;&gt;Aurora Postgres&lt;/font&gt;&lt;/b&gt;" style="text;html=1;align=center;verticalAlign=middle;resizable=0;points=[];autosize=1;strokeColor=none;fillColor=none;" vertex="1" parent="UEzPUAAOIrF-is8g5C7q-74">
          <mxGeometry x="7.130000000000001" y="153" width="160" height="40" as="geometry" />
        </mxCell>
        <mxCell id="YWTlqwsw8NpX150Vbp0f-14" value="&lt;b&gt;&lt;font style=&quot;font-size: 18px;&quot;&gt;Kinesis Data Streams&lt;/font&gt;&lt;/b&gt;" style="text;html=1;align=center;verticalAlign=middle;resizable=0;points=[];autosize=1;strokeColor=none;fillColor=none;" vertex="1" parent="UEzPUAAOIrF-is8g5C7q-74">
          <mxGeometry x="432.13" y="153" width="210" height="40" as="geometry" />
        </mxCell>
        <mxCell id="YWTlqwsw8NpX150Vbp0f-10" value="&lt;font style=&quot;font-size: 24px;&quot;&gt;AuroraKinesisPipeline&lt;/font&gt;" style="text;html=1;align=center;verticalAlign=middle;resizable=0;points=[];autosize=1;strokeColor=none;fillColor=none;" vertex="1" parent="1">
          <mxGeometry x="382.5" y="50" width="260" height="40" as="geometry" />
        </mxCell>
      </root>
    </mxGraphModel>
  </diagram>
</mxfile>
